<svg width="32" height="32" viewBox="0 0 32 32" xmlns="http://www.w3.org/2000/svg"><path d="M6.723 6.61c.081-1.27 1.203-2.388 2.48-2.47 3.29-.2 6.56-.262 9.837-.186a2.423 2.423 0 0 1 1.513.598 333.56 333.56 0 0 0 1.926 1.638c.641.523 1.287 1.045 1.935 1.565.582.467.945 1.144.975 1.843a154.21 154.21 0 0 1-.113 15.814c-.078 1.275-1.205 2.398-2.486 2.475a116.42 116.42 0 0 1-13.58 0c-1.278-.077-2.404-1.196-2.486-2.47A153.978 153.978 0 0 1 6.723 6.61Z" fill="#ff3b4b"></path><path fill-rule="evenodd" clip-rule="evenodd" d="M12 11a1.5 1.5 0 0 0-1.5 1.5v1.516h5V11H12Zm4.5 0v7h5v-5.5A1.5 1.5 0 0 0 20 11h-3.5Zm5 8h-5v3H20a1.5 1.5 0 0 0 1.5-1.5V19Zm-6 3v-6.984h-5V20.5A1.5 1.5 0 0 0 12 22h3.5Z" fill="#fff"></path></svg>