<svg xmlns="http://www.w3.org/2000/svg" fill="none" height="32" width="32"><path fill="#ffff" d="M16 3c4.691 0 7.037 0 8.653 1.24a6 6 0 0 1 1.107 1.107C27 6.963 27 9.31 27 14v4c0 4.691 0 7.037-1.24 8.653-.32.416-.691.788-1.107 1.107C23.037 29 20.69 29 16 29c-4.691 0-7.037 0-8.653-1.24a6 6 0 0 1-1.107-1.107C5 25.037 5 22.69 5 18v-4c0-4.691 0-7.037 1.24-8.653A6 6 0 0 1 7.347 4.24C8.963 3 11.31 3 16 3Zm5.63 22H10.465c-1.307 0-1.793-1.274-1.12-2.316l1.493-2.355c.635-1.042 2.277-1.042 2.912 0l.71 1.12 2.315-3.667c.634-1.043 2.277-1.043 2.912 0l3.062 4.902c.672 1.042.149 2.316-1.12 2.316ZM23 8.5A1.5 1.5 0 0 0 21.5 7h-11a1.5 1.5 0 1 0 0 3h11A1.5 1.5 0 0 0 23 8.5Zm-1.5 3a1.5 1.5 0 0 1 0 3h-11a1.5 1.5 0 0 1 0-3h11Zm-9.5 6a1.5 1.5 0 1 0-3 0 1.5 1.5 0 0 0 3 0Z" clip-rule="evenodd" fill-rule="evenodd"></path></svg>